<svg width="37" height="37" viewBox="0 0 37 37" fill="none" xmlns="http://www.w3.org/2000/svg" shape-rendering="geometricPrecision">
<g filter="url(#filter0_i)">
<path d="M31.5815 5.41839C34.2731 8.11 36.0689 11.5664 36.724 15.3161C37.3791 19.0658 36.8615 22.9263 35.242 26.3711C33.6224 29.8159 30.9797 32.6772 27.6742 34.5649C24.3687 36.4525 20.5613 37.2746 16.7715 36.9189C12.9816 36.5633 9.39373 35.0472 6.49714 32.5776C3.60055 30.1079 1.53629 26.8048 0.585902 23.1189C-0.364487 19.4329 -0.154737 15.5435 1.18654 11.9811C2.52783 8.41875 4.22985 6.14384 7.37524 4L4.23547 0.200684L20.4896 0.249974L17.4758 16.2223L14.3282 12.3791C13.0688 13.2375 12.1048 14.4634 11.5678 15.8898C11.0307 17.3162 10.9468 18.8734 11.3273 20.3493C11.7078 21.8251 12.5343 23.1477 13.6941 24.1365C14.8539 25.1254 16.2905 25.7324 17.8079 25.8748C19.3254 26.0172 20.8498 25.688 22.1733 24.9322C23.4968 24.1764 24.5549 23.0308 25.2034 21.6515C25.8519 20.2722 26.0591 18.7265 25.7968 17.2251C25.5345 15.7237 24.8155 14.3398 23.7378 13.2621L31.5815 5.41839Z" fill="#EAB600"/>
</g>
<defs>
<filter id="filter0_i" x="0" y="0.200684" width="37" height="36.7992" filterUnits="userSpaceOnUse" color-interpolation-filters="sRGB">
<feFlood flood-opacity="0" result="BackgroundImageFix"/>
<feBlend mode="normal" in="SourceGraphic" in2="BackgroundImageFix" result="shape"/>
<feColorMatrix in="SourceAlpha" type="matrix" values="0 0 0 0 0 0 0 0 0 0 0 0 0 0 0 0 0 0 127 0" result="hardAlpha"/>
<feOffset dy="2"/>
<feComposite in2="hardAlpha" operator="arithmetic" k2="-1" k3="1"/>
<feColorMatrix type="matrix" values="0 0 0 0 0.584314 0 0 0 0 0.458824 0 0 0 0 0 0 0 0 1 0"/>
<feBlend mode="normal" in2="shape" result="effect1_innerShadow"/>
</filter>
</defs>
</svg>
